<?xml version="1.0" encoding="UTF-8"?> <svg xmlns="http://www.w3.org/2000/svg" width="32" height="32" viewBox="0 0 32 32" fill="none"><path d="M31.129 12.0121C31.0057 18.4736 25.514 23.5635 19.0847 23.5635H18.281C18.0748 23.5638 17.8707 23.6057 17.6811 23.6867C17.4914 23.7677 17.3201 23.8862 17.1773 24.035L13.0036 28.4605L10.1158 31.5252C9.92895 31.7223 9.6928 31.8658 9.43182 31.9408C9.17084 32.0158 8.89454 32.0196 8.63159 31.9518C8.36864 31.884 8.12862 31.7471 7.93644 31.5553C7.74426 31.3634 7.60692 31.1236 7.53867 30.8608L6.46711 26.7835L5.63666 23.5689L4.11505 17.6753L3.08635 13.6838C3.02926 13.4593 3.02417 13.2247 3.07149 12.9979C3.11881 12.7712 3.21727 12.5582 3.35939 12.3753C3.5015 12.1923 3.6835 12.0442 3.89152 11.9423C4.09955 11.8404 4.32809 11.7873 4.55974 11.7871H7.50652C7.84387 11.7871 8.17167 11.8992 8.43837 12.1058C8.70508 12.3123 8.89557 12.6017 8.97991 12.9283L10.2015 17.6753L11.273 21.7204L14.6377 18.1522C14.7795 18.0016 14.9505 17.8817 15.1403 17.7997C15.3301 17.7177 15.5347 17.6753 15.7414 17.6753H19.374C20.183 17.6772 20.9837 17.5125 21.7262 17.1915C22.4688 16.8706 23.1373 16.4001 23.6901 15.8096C24.243 15.219 24.6684 14.521 24.9398 13.7589C25.2111 12.9968 25.3227 12.187 25.2676 11.3799C25.136 9.86101 24.4316 8.44898 23.2974 7.43017C22.1632 6.41136 20.684 5.86203 19.1597 5.89356H2.2559C1.91831 5.89451 1.59007 5.78276 1.32317 5.57604C1.05628 5.36932 0.86601 5.07945 0.782509 4.75235L0.0484941 1.89665C-0.00959719 1.67251 -0.0155829 1.43804 0.0309968 1.21123C0.0775765 0.984416 0.175483 0.771286 0.317209 0.58818C0.458935 0.405074 0.640715 0.256858 0.848607 0.154902C1.0565 0.0529459 1.28498 -4.17853e-05 1.51652 2.47235e-08H19.3472C20.913 0.00405015 22.4624 0.319177 23.9053 0.927078C25.3483 1.53498 26.6561 2.42353 27.7528 3.54113C28.8494 4.65873 29.7131 5.9831 30.2936 7.4373C30.8741 8.89151 31.1599 10.4466 31.1343 12.0121H31.129Z" fill="#6E55FF"></path></svg> 