<?xml version="1.0" encoding="UTF-8"?> <svg xmlns="http://www.w3.org/2000/svg" width="462.162" height="59.726" viewBox="0 0 462.162 59.726"><g transform="translate(-43.379 -47.65)"><path d="M147.19,58.58A12,12,0,0,1,153.12,60a10.78,10.78,0,0,1,4.19,4.07,11.28,11.28,0,0,1,1.53,5.81A10.82,10.82,0,0,1,155.5,78a11.47,11.47,0,0,1-8.31,3.23h-5.57V91.58h-7.13v-33Zm-.32,16.08a4.57,4.57,0,0,0,3.41-1.33,5.08,5.08,0,0,0,0-6.8,4.6,4.6,0,0,0-3.42-1.33h-5.25v9.46Z" fill="#161428"></path><path d="M176.33,66h2.26v6.49h-3c-1.94,0-3.32.45-4.16,1.37s-1.25,2.41-1.25,4.5V91.58H163.3V66.13h4.39l1.22,3.13A8.93,8.93,0,0,1,176.33,66Z" fill="#161428"></path><path d="M194,92.29a14.33,14.33,0,0,1-7-1.74,12.67,12.67,0,0,1-5-4.84A14.1,14.1,0,0,1,182,72a12.6,12.6,0,0,1,5-4.85,15.09,15.09,0,0,1,14.07,0A12.72,12.72,0,0,1,206,72a14,14,0,0,1,0,13.74,12.77,12.77,0,0,1-5,4.81,14.33,14.33,0,0,1-7,1.74Zm-4.88-8.41a7.07,7.07,0,0,0,9.75,0,7.55,7.55,0,0,0,0-10.06,7.1,7.1,0,0,0-9.75,0A7.58,7.58,0,0,0,189.12,83.88Z" fill="#161428"></path><path d="M207.29,100.76V94.43h2.21q3.75,0,3.75-3.75V66.13h6.88V91.21a9.16,9.16,0,0,1-9.55,9.55Zm6-38v-6.4h6.86v6.4Z" fill="#161428"></path><path d="M251.43,78.76a15,15,0,0,1-.14,2H232a6.39,6.39,0,0,0,2.08,4,6.2,6.2,0,0,0,4.15,1.39,6.47,6.47,0,0,0,3.19-.78,5.51,5.51,0,0,0,2.2-2.16h7.23a13.434,13.434,0,0,1-19.35,7.3,12.62,12.62,0,0,1-4.75-4.84,13.8,13.8,0,0,1-1.73-6.84A13.94,13.94,0,0,1,226.77,72a12.5,12.5,0,0,1,4.74-4.83,13.32,13.32,0,0,1,6.75-1.75,13.09,13.09,0,0,1,6.86,1.81,12.36,12.36,0,0,1,4.68,4.84,14,14,0,0,1,1.63,6.69Zm-13.17-7.48a6,6,0,0,0-3.86,1.27,6.45,6.45,0,0,0-2.19,3.54h12.34a6.93,6.93,0,0,0-2.34-3.57,6.35,6.35,0,0,0-3.95-1.24Z" fill="#161428"></path><path d="M268.16,92.29a13.67,13.67,0,0,1-5.34-1,13.24,13.24,0,0,1-4.3-2.85,12.929,12.929,0,0,1-2.83-4.3,13.78,13.78,0,0,1-1-5.32,13.641,13.641,0,0,1,1-5.29,12.75,12.75,0,0,1,2.83-4.26,13,13,0,0,1,4.31-2.79,14,14,0,0,1,5.38-1,13,13,0,0,1,8.46,2.87,12.65,12.65,0,0,1,4.47,7.58h-6.83A6.53,6.53,0,0,0,271.84,73a6.65,6.65,0,0,0-3.68-1.05,6.14,6.14,0,0,0-4.66,2,6.92,6.92,0,0,0-1.87,4.94,7.05,7.05,0,0,0,1.88,5,6.09,6.09,0,0,0,4.65,2,6.23,6.23,0,0,0,3.68-1.11,7.17,7.17,0,0,0,2.47-3.15h6.92a12.68,12.68,0,0,1-4.49,7.77,13.11,13.11,0,0,1-8.58,2.89Z" fill="#161428"></path><path d="M298.08,85.46h3.13v6.12h-4.88a8.4,8.4,0,0,1-9-9.09V71.65h-4.61V70.18l10.06-10.71h1.31v6.66h7v5.52h-6.9v9.92a3.53,3.53,0,0,0,3.91,3.89Z" fill="#161428"></path><path d="M319.07,58.58A12,12,0,0,1,325,60a10.78,10.78,0,0,1,4.19,4.07,11.28,11.28,0,0,1,1.53,5.81A10.82,10.82,0,0,1,327.38,78a11.47,11.47,0,0,1-8.31,3.23H313.5V91.58h-7.13v-33Zm-.32,16.08a4.57,4.57,0,0,0,3.41-1.33,5.08,5.08,0,0,0,0-6.8,4.6,4.6,0,0,0-3.42-1.33H313.5v9.46Z" fill="#161428"></path><path d="M355.69,66.08h5.16V91.53h-5.41l-.6-2.27a12.13,12.13,0,0,1-8.24,3,13.59,13.59,0,0,1-6.84-1.74A12.52,12.52,0,0,1,335,85.7a13.9,13.9,0,0,1-1.73-6.89A13.75,13.75,0,0,1,335,72a12.41,12.41,0,0,1,4.78-4.81,13.59,13.59,0,0,1,6.84-1.74A12.15,12.15,0,0,1,355,68.52Zm-13.5,17.71a7.19,7.19,0,0,0,9.92,0,7.32,7.32,0,0,0,0-10,7.19,7.19,0,0,0-9.92,0,7.29,7.29,0,0,0,0,10Z" fill="#161428"></path><path d="M380.46,66h2.25v6.49h-3c-1.93,0-3.32.45-4.15,1.37a6.611,6.611,0,0,0-1.26,4.5V91.58h-6.88V66.13h4.4l1.22,3.13A8.93,8.93,0,0,1,380.46,66Z" fill="#161428"></path><path d="M399.24,85.46h3.13v6.12h-4.88a8.4,8.4,0,0,1-9.05-9.09V71.65h-4.6V70.18L393.9,59.47h1.31v6.66h7v5.52H395.3v9.92a3.54,3.54,0,0,0,3.92,3.89Z" fill="#161428"></path><path d="M421.54,65.53a8.71,8.71,0,0,1,6.88,2.89A11.25,11.25,0,0,1,431,76.16V91.58h-6.88V77.26q0-5.7-4.44-5.7a5.22,5.22,0,0,0-4.18,1.78,7.23,7.23,0,0,0-1.53,4.87V91.58h-6.88V66.13h4.72l1.33,3.15a10.41,10.41,0,0,1,3.67-2.75,11.31,11.31,0,0,1,4.73-1Z" fill="#161428"></path><path d="M462,78.76a15.057,15.057,0,0,1-.13,2H442.55a6.44,6.44,0,0,0,2.08,4,6.22,6.22,0,0,0,4.16,1.39,6.52,6.52,0,0,0,3.19-.78,5.55,5.55,0,0,0,2.19-2.16h7.23a13.42,13.42,0,0,1-19.34,7.3,12.58,12.58,0,0,1-4.76-4.84,13.79,13.79,0,0,1-1.72-6.84A13.94,13.94,0,0,1,437.29,72,12.57,12.57,0,0,1,442,67.16a13.33,13.33,0,0,1,6.76-1.75,13.12,13.12,0,0,1,6.86,1.81,12.41,12.41,0,0,1,4.67,4.84A13.92,13.92,0,0,1,462,78.76Zm-13.16-7.48a6,6,0,0,0-3.87,1.27,6.38,6.38,0,0,0-2.18,3.54h12.33a6.85,6.85,0,0,0-2.33-3.57,6.37,6.37,0,0,0-4-1.24Z" fill="#161428"></path><path d="M479.86,66h2.25v6.49h-3c-1.94,0-3.32.45-4.16,1.37s-1.25,2.41-1.25,4.5V91.58h-6.88V66.13h4.39l1.22,3.13A8.93,8.93,0,0,1,479.86,66Z" fill="#161428"></path><path d="M494.87,92.29a11.54,11.54,0,0,1-7.73-2.49,8.32,8.32,0,0,1-2.95-6.6h6.69a3,3,0,0,0,1.19,2.51,5,5,0,0,0,3.07.88,4.75,4.75,0,0,0,2.57-.67A2.12,2.12,0,0,0,498.76,84a1.71,1.71,0,0,0-.36-1,2.64,2.64,0,0,0-1.12-.77,8.88,8.88,0,0,0-1.49-.48c-.49-.12-1.14-.25-1.94-.38L492,81c-.49-.1-1.08-.25-1.78-.45a10.281,10.281,0,0,1-1.76-.65,9.858,9.858,0,0,1-1.51-1,5.21,5.21,0,0,1-1.26-1.32,6.668,6.668,0,0,1-.79-1.76,8.161,8.161,0,0,1-.31-2.28,7.2,7.2,0,0,1,2.83-5.88,11.53,11.53,0,0,1,7.42-2.27,11.09,11.09,0,0,1,7.38,2.34,7.68,7.68,0,0,1,2.81,6.15H498.5a2.72,2.72,0,0,0-1-2.25,4.57,4.57,0,0,0-2.82-.76,4.12,4.12,0,0,0-2.5.67,2.09,2.09,0,0,0-.9,1.77,1.79,1.79,0,0,0,.14.75,1.36,1.36,0,0,0,.53.57c.26.16.49.3.72.42a5.048,5.048,0,0,0,1,.34c.45.12.82.2,1.1.26l1.31.24a25.618,25.618,0,0,1,5.34,1.38,6.51,6.51,0,0,1,4.11,6.44A7.56,7.56,0,0,1,502.62,90a12,12,0,0,1-7.75,2.29Z" fill="#161428"></path><path d="M101.48,70.07C101.25,82.13,91,91.63,79,91.63H77.5a2.86,2.86,0,0,0-2.06.88l-7.79,8.26-5.39,5.72a2.84,2.84,0,0,1-4.81-1.24l-2-7.61-1.55-6-2.84-11-1.92-7.45a2.84,2.84,0,0,1,2.75-3.54h5.5a2.84,2.84,0,0,1,2.75,2.13l2.28,8.86,2,7.55,6.28-6.66a2.83,2.83,0,0,1,2.06-.89h6.78a11,11,0,0,0,11-11.75,11.21,11.21,0,0,0-11.4-10.24H47.59a2.83,2.83,0,0,1-2.75-2.13l-1.37-5.33a2.83,2.83,0,0,1,2.74-3.54H79.49a22.06,22.06,0,0,1,22,22.42Z" fill="#6e55ff"></path></g></svg> 