<?xml version="1.0" encoding="UTF-8"?> <svg xmlns="http://www.w3.org/2000/svg" xmlns:xlink="http://www.w3.org/1999/xlink" width="80" height="80" overflow="hidden"><defs><clipPath id="clip0"><rect x="126" y="228" width="80" height="80"></rect></clipPath><clipPath id="clip1"><rect x="127" y="228" width="79" height="79"></rect></clipPath><clipPath id="clip2"><rect x="127" y="228" width="79" height="79"></rect></clipPath><clipPath id="clip3"><rect x="127" y="228" width="79" height="79"></rect></clipPath></defs><g clip-path="url(#clip0)" transform="translate(-126 -228)"><g clip-path="url(#clip1)"><g clip-path="url(#clip2)"><g clip-path="url(#clip3)"><path d="M193.656 259.551C193.358 257.758 191.664 256.546 189.871 256.843L182.67 258.045C182.67 258.045 179.667 250.071 179.667 249.997 178.136 245.281 171.569 245.281 166.5 245.281 161.431 245.281 154.905 245.281 153.407 249.997 153.407 250.071 150.379 258.045 150.379 258.045L143.179 256.843C141.388 256.527 139.681 257.721 139.364 259.511 139.047 261.302 140.242 263.009 142.032 263.326 142.052 263.33 142.072 263.333 142.092 263.336L151.967 264.982C152.146 265.015 152.328 265.031 152.51 265.031 153.885 265.032 155.115 264.179 155.596 262.892L157.621 257.469 158.271 257.757 158.271 304.531 164.854 304.531 164.854 274.906 168.146 274.906 168.146 304.531 174.729 304.531 174.729 257.765C174.968 257.666 175.198 257.567 175.42 257.46L177.453 262.892C177.933 264.176 179.159 265.029 180.531 265.031 180.713 265.031 180.895 265.015 181.074 264.982L190.949 263.336C192.742 263.038 193.953 261.343 193.656 259.551Z" fill="#6E55FF" fill-rule="nonzero" fill-opacity="1"></path><path d="M173.083 237.052C173.083 240.688 170.136 243.635 166.5 243.635 162.864 243.635 159.917 240.688 159.917 237.052 159.917 233.416 162.864 230.469 166.5 230.469 170.136 230.469 173.083 233.416 173.083 237.052Z" fill="#6E55FF" fill-rule="nonzero" fill-opacity="1"></path></g></g></g></g></svg> 