<?xml version="1.0" encoding="UTF-8"?> <svg xmlns="http://www.w3.org/2000/svg" width="36" height="48" viewBox="0 0 36 48" fill="none"><path d="M32.129 28.0121C32.0057 34.4736 26.514 39.5635 20.0847 39.5635H19.281C19.0748 39.5638 18.8707 39.6057 18.6811 39.6867C18.4914 39.7677 18.3201 39.8862 18.1773 40.035L14.0036 44.4605L11.1158 47.5252C10.9289 47.7223 10.6928 47.8658 10.4318 47.9408C10.1708 48.0158 9.89454 48.0196 9.63159 47.9518C9.36864 47.884 9.12862 47.7471 8.93644 47.5553C8.74426 47.3634 8.60692 47.1236 8.53867 46.8608L7.46711 42.7835L6.63666 39.5689L5.11505 33.6753L4.08635 29.6838C4.02926 29.4593 4.02417 29.2247 4.07149 28.9979C4.11881 28.7712 4.21727 28.5582 4.35939 28.3753C4.5015 28.1923 4.6835 28.0442 4.89152 27.9423C5.09955 27.8404 5.32809 27.7873 5.55974 27.7871H8.50652C8.84387 27.7871 9.17167 27.8992 9.43837 28.1058C9.70508 28.3123 9.89557 28.6017 9.97991 28.9283L11.2015 33.6753L12.273 37.7204L15.6377 34.1522C15.7795 34.0016 15.9505 33.8817 16.1403 33.7997C16.3301 33.7177 16.5347 33.6753 16.7414 33.6753H20.374C21.183 33.6772 21.9837 33.5125 22.7262 33.1915C23.4688 32.8706 24.1373 32.4001 24.6901 31.8096C25.243 31.219 25.6684 30.521 25.9398 29.7589C26.2111 28.9968 26.3227 28.187 26.2676 27.3799C26.136 25.861 25.4316 24.449 24.2974 23.4302C23.1632 22.4114 21.684 21.862 20.1597 21.8936H3.2559C2.91831 21.8945 2.59007 21.7828 2.32317 21.576C2.05628 21.3693 1.86601 21.0794 1.78251 20.7524L1.04849 17.8967C0.990403 17.6725 0.984417 17.438 1.031 17.2112C1.07758 16.9844 1.17548 16.7713 1.31721 16.5882C1.45893 16.4051 1.64072 16.2569 1.84861 16.1549C2.0565 16.0529 2.28498 16 2.51652 16H20.3472C21.913 16.0041 23.4624 16.3192 24.9053 16.9271C26.3483 17.535 27.6561 18.4235 28.7528 19.5411C29.8494 20.6587 30.7131 21.9831 31.2936 23.4373C31.8741 24.8915 32.1599 26.4466 32.1343 28.0121H32.129Z" fill="#5A46D1"></path><path d="M4.92908 10.9727C5.48795 9.12326 6.04758 7.27304 6.60646 5.42359C6.72219 5.03984 6.84554 4.64238 7.11583 4.34391C7.41583 4.01346 7.85592 3.84824 8.27774 3.69596C11.5411 2.52111 14.8365 1.43229 18.1585 0.431806C19.0455 0.164552 19.9699 -0.0996555 20.8874 0.0373976C21.7333 0.16303 22.4879 0.617589 23.2097 1.07215C25.7589 2.67643 28.2312 4.39949 30.6159 6.23296C30.9798 6.5124 31.3522 6.80706 31.5676 7.20908C31.7656 7.57608 31.8151 8.00095 31.86 8.41363C32.5125 14.4447 32.8514 20.5086 32.8757 26.5732C32.7257 26.9455 32.1615 26.9843 31.8372 26.7422C31.5128 26.5008 32.0778 24.7329 31.9537 24.3514C30.4141 19.6246 28.4474 16.3368 26.6299 11.5323" fill="#ED2F2F"></path><path d="M29.2256 10.978C30.4187 13.965 29.8134 13.0025 29.0017 16.1098L27.4637 17.5299C27.5756 17.1598 27.1804 18.5646 27.252 17.9228L3.72913 10.8881C4.43647 10.2889 6.59963 9.6752 7.04277 9.66606C9.68256 9.61429 10.9336 9.68891 13.5254 10.1853C13.2345 10.4427 13.1036 10.566 12.8127 10.8234C17.2997 10.5919 21.3778 11.6929 25.264 13.9231C26.384 14.5657 26.8705 15.0462 27.418 15.3918C27.5238 12.0873 27.3198 7.8897 26.8317 5.85142C26.8188 5.79736 26.8957 5.77376 26.9185 5.82477L28.5083 9.37521" fill="#DD281F"></path><path d="M5.46741 9.82592C6.93844 9.2838 10.3084 8.54828 11.7254 8.36859C16.4781 7.76784 19.1864 8.25514 23.7145 8.96706C23.1069 9.20081 22.8313 9.31426 22.2229 9.54801C24.1615 9.58075 26.9132 8.78051 27.718 8.46453C29.0101 7.95743 26.8591 11.8688 28.2624 13.0832" fill="#DD281F"></path><path d="M32.8758 26.5732C32.7258 26.9455 32.1616 26.9844 31.8372 26.7423C31.5128 26.5009 32.0778 24.7329 31.9537 24.3514C31.9369 24.3004 31.9202 24.2525 31.9034 24.2014L31.9095 24.1778L32.4517 15.0745C32.7181 18.9013 32.8605 22.7373 32.8758 26.5732Z" fill="#DD281F"></path><path d="M29.4015 16.7732C27.0982 18.2412 28.9355 18.0699 29.1365 18.1932C28.0172 19.5348 23.3026 17.7516 22.1148 18.5275L23.0902 19.0749C21.0298 19.6627 18.4098 19.8485 15.036 19.6384C12.7244 19.349 11.7467 18.8534 10.3968 18.6661C10.5803 18.8815 10.7889 19.0757 11.0089 19.2554C8.20848 18.9051 5.60523 18.3531 3.87456 17.6816C3.86694 17.9024 4.06871 18.1909 4.3847 18.398C4.46008 18.4475 2.57483 18.3021 1.64211 17.227C1.37866 16.924 0.882228 16.1709 0.98654 15.3045C0.833498 15.4095 0.640101 15.6235 0.592133 16.3087C-0.696928 13.273 0.285286 11.2157 1.94058 10.1863C2.26494 9.9845 2.92965 9.68679 3.29056 9.55736C4.56667 9.09747 5.53899 8.98249 7.01383 8.89722C6.65217 9.11193 6.25395 9.31904 6.04228 9.53299C7.37322 9.28325 12.2455 8.79747 16.801 9.23224C18.9755 9.4401 23.8836 10.6439 26.0208 10.1977C25.6249 10.554 25.4597 10.538 25.0637 10.8936C26.9147 10.902 28.8951 11.3581 29.9048 12.8908C31.0568 14.6405 30.2603 16.1587 29.4015 16.7732Z" fill="#EDEDED"></path><path d="M29.4015 16.7732C27.0982 18.2412 28.9355 18.0699 29.1365 18.1933C28.0172 19.5349 23.3026 17.7516 22.1148 18.5275L23.0902 19.075C21.0298 19.6628 18.4098 19.8486 15.036 19.6384C12.7244 19.3491 11.7467 18.8534 10.3968 18.6661C10.5803 18.8816 10.7889 19.0757 11.0089 19.2554C8.20848 18.9052 5.60523 18.3532 3.87455 17.6816C3.86694 17.9024 4.06871 18.191 4.38469 18.3981C4.46007 18.4476 2.57483 18.3021 1.64211 17.227C1.37866 16.924 0.882225 16.171 0.986537 15.3045C1.21724 16.3012 1.90403 17.0451 3.04614 17.5369C2.88472 17.3382 2.78041 17.0945 2.74691 16.8418C4.89408 17.6709 7.17144 18.1681 9.47165 18.3105C9.36886 18.1552 9.26531 17.9999 9.16176 17.8445C10.7447 18.2405 12.3376 18.6379 13.9662 18.7483C15.5949 18.858 18.0618 19.0133 19.5146 18.2808C19.1796 18.1049 18.0603 17.5803 17.7253 17.4044C19.7202 17.3458 21.7143 17.2864 23.7092 17.2278C24.0907 17.2164 27.45 17.1859 28.4025 15.4522C29.7928 12.9213 26.9642 11.2523 25.6546 10.9135C27.3228 11.0124 29.0017 11.5203 29.9047 12.8908C31.0568 14.6405 30.2603 16.1588 29.4015 16.7732Z" fill="#DDDDDD"></path><path d="M32.1143 23.7163C32.6618 23.5778 34.0772 23.8876 34.5417 24.2052C35.0937 24.5821 35.4226 25.0983 35.6861 25.5924C35.4638 25.5787 35.2414 25.5658 35.0191 25.5521C35.7371 26.1574 35.9709 27.2386 35.9176 28.169C35.8643 29.0995 35.7325 29.538 34.8524 30.4814C33.9524 31.2299 33.6866 31.3449 32.7372 31.5383C31.7869 31.7324 30.6532 31.5428 30.003 30.8309C30.2093 30.7791 30.4156 30.7274 30.6227 30.6756C28.8685 29.9424 27.8002 27.885 28.2213 26.0516C28.554 26.6851 28.5982 26.9066 29.269 27.1724C28.9834 26.8655 29.1365 25.4759 30.0349 24.6871C30.5154 24.2653 31.1375 23.8968 31.7641 23.7544" fill="#EDEDED"></path><path d="M34.9613 30.5713C34.1237 31.303 33.6143 31.4759 32.6641 31.6289C31.707 31.7827 30.6532 31.5429 30.003 30.831C30.2093 30.7792 30.4157 30.7274 30.6228 30.6756C28.8913 29.9515 27.8307 27.9384 28.2083 26.1232C28.3743 27.5219 28.6956 27.9467 29.0444 28.3769C29.3961 28.8102 29.7015 29.0752 30.1895 29.3515C30.6776 29.6279 31.3012 29.7132 31.806 29.468C31.8151 29.7543 31.7276 30.0429 31.5593 30.2759C32.2499 30.7008 34.0247 30.368 34.9011 29.4102C35.3047 28.9693 35.4569 28.4074 35.4805 27.85C35.2651 27.9323 35.0427 27.997 34.8158 28.0389C35.1752 27.5516 35.3382 26.9326 35.2864 26.3326C35.2019 26.0234 35.1128 25.763 35.0191 25.5521C35.7371 26.1574 36.0082 27.1389 35.9998 28.0709C35.993 28.8894 35.98 29.4239 34.9613 30.5713Z" fill="#DDDDDD"></path></svg> 