<?xml version="1.0" encoding="UTF-8"?> <svg xmlns="http://www.w3.org/2000/svg" width="465" height="90" viewBox="0 0 465 90" fill="none"><g clip-path="url(#clip0_432_3150)"><path d="M105.811 40.93C107.877 40.8848 109.919 41.374 111.741 42.35C113.485 43.2952 114.935 44.7036 115.931 46.42C116.957 48.1827 117.485 50.1906 117.461 52.23C117.502 53.7417 117.227 55.2454 116.651 56.644C116.076 58.0426 115.214 59.3051 114.121 60.35C113.021 61.4158 111.72 62.2507 110.293 62.8054C108.865 63.3602 107.341 63.6235 105.811 63.58H100.241V73.93H93.1108V40.93H105.811ZM105.491 57.01C106.12 57.0353 106.748 56.9302 107.335 56.7013C107.922 56.4724 108.455 56.1247 108.901 55.68C109.741 54.747 110.206 53.5357 110.206 52.28C110.206 51.0242 109.741 49.813 108.901 48.88C108.453 48.4355 107.918 48.088 107.329 47.8592C106.741 47.6304 106.112 47.5251 105.481 47.55H100.231V57.01H105.491Z" fill="#161428"></path><path d="M134.951 48.35H137.211V54.84H134.211C132.271 54.84 130.891 55.29 130.051 56.21C129.211 57.13 128.801 58.62 128.801 60.71V73.93H121.921V48.48H126.311L127.531 51.61C128.423 50.5199 129.56 49.6563 130.85 49.0897C132.139 48.5232 133.545 48.2697 134.951 48.35Z" fill="#161428"></path><path d="M152.621 74.64C150.177 74.6663 147.768 74.0673 145.621 72.9C143.535 71.7849 141.803 70.1084 140.621 68.06C139.454 65.9635 138.842 63.6041 138.842 61.205C138.842 58.8059 139.454 56.4465 140.621 54.35C141.799 52.2956 143.531 50.6147 145.621 49.5C147.79 48.3571 150.204 47.7598 152.656 47.7598C155.107 47.7598 157.522 48.3571 159.691 49.5C161.751 50.6303 163.457 52.309 164.621 54.35C165.802 56.4471 166.422 58.8132 166.422 61.22C166.422 63.6268 165.802 65.9929 164.621 68.09C163.43 70.124 161.699 71.7888 159.621 72.9C157.474 74.0673 155.064 74.6663 152.621 74.64ZM147.741 66.23C149.055 67.4815 150.801 68.1795 152.616 68.1795C154.431 68.1795 156.176 67.4815 157.491 66.23C158.727 64.8462 159.41 63.0556 159.41 61.2C159.41 59.3444 158.727 57.5538 157.491 56.17C156.173 54.9252 154.429 54.2318 152.616 54.2318C150.803 54.2318 149.059 54.9252 147.741 56.17C146.511 57.5568 145.831 59.3462 145.831 61.2C145.831 63.0537 146.511 64.8432 147.741 66.23V66.23Z" fill="#161428"></path><path d="M165.911 83.11V76.78H168.121C170.621 76.78 171.871 75.53 171.871 73.03V48.48H178.751V73.56C178.806 74.8288 178.597 76.0953 178.137 77.279C177.676 78.4627 176.975 79.5377 176.077 80.4357C175.179 81.3338 174.104 82.0353 172.92 82.4957C171.736 82.956 170.47 83.1652 169.201 83.11H165.911ZM171.911 45.11V38.71H178.771V45.11H171.911Z" fill="#161428"></path><path d="M210.051 61.11C210.049 61.779 210.002 62.4472 209.911 63.11H190.621C190.805 64.6517 191.545 66.0736 192.701 67.11C193.869 68.0624 195.345 68.5565 196.851 68.5C197.964 68.5186 199.062 68.25 200.041 67.72C200.965 67.224 201.728 66.4746 202.241 65.56H209.471C208.828 67.4271 207.781 69.1295 206.405 70.5461C205.03 71.9626 203.358 73.0584 201.511 73.7555C199.663 74.4525 197.685 74.7336 195.716 74.5788C193.747 74.4241 191.837 73.8372 190.121 72.86C188.126 71.7102 186.483 70.0365 185.371 68.02C184.211 65.9284 183.615 63.5714 183.641 61.18C183.629 58.791 184.232 56.4391 185.391 54.35C186.497 52.3348 188.137 50.6635 190.131 49.52C192.186 48.3476 194.515 47.7435 196.881 47.77C199.291 47.7303 201.664 48.3566 203.741 49.58C205.719 50.7292 207.339 52.4047 208.421 54.42C209.513 56.4795 210.073 58.779 210.051 61.11V61.11ZM196.881 53.63C195.486 53.5914 194.121 54.0406 193.021 54.9C191.92 55.8055 191.15 57.0504 190.831 58.44H203.171C202.786 57.0334 201.967 55.7841 200.831 54.87C199.69 54.027 198.299 53.5904 196.881 53.63V53.63Z" fill="#161428"></path><path d="M226.781 74.6401C224.952 74.6674 223.136 74.3273 221.441 73.6401C219.835 72.9812 218.374 72.0128 217.141 70.7901C215.919 69.5609 214.957 68.0986 214.311 66.4901C213.629 64.8003 213.289 62.9921 213.311 61.1701C213.29 59.3578 213.63 57.5595 214.311 55.8801C214.957 54.2835 215.92 52.8343 217.141 51.6201C218.378 50.4128 219.843 49.4643 221.451 48.8301C223.161 48.1461 224.989 47.8063 226.831 47.8301C229.902 47.7573 232.899 48.7741 235.291 50.7001C237.64 52.6104 239.226 55.2999 239.761 58.2801H232.931C232.419 57.0783 231.559 56.0577 230.461 55.3501C229.364 54.647 228.084 54.2819 226.781 54.3001C225.907 54.2823 225.039 54.4516 224.235 54.7965C223.431 55.1414 222.711 55.654 222.121 56.3001C220.869 57.6347 220.197 59.4109 220.251 61.2401C220.198 63.0888 220.873 64.8845 222.131 66.2401C222.717 66.8874 223.436 67.401 224.238 67.7461C225.041 68.0911 225.908 68.2596 226.781 68.2401C228.094 68.2672 229.382 67.8787 230.461 67.1301C231.567 66.3358 232.423 65.2433 232.931 63.9801H239.851C239.352 67.0308 237.755 69.794 235.361 71.7501C232.935 73.7017 229.893 74.7262 226.781 74.6401V74.6401Z" fill="#161428"></path><path d="M256.701 67.8099H259.831V73.9299H254.951C253.738 74.0212 252.519 73.848 251.38 73.4222C250.241 72.9963 249.207 72.3281 248.351 71.4637C247.495 70.5993 246.838 69.5593 246.423 68.4156C246.009 67.272 245.847 66.052 245.951 64.8399V53.9999H241.341V52.5299L251.401 41.8199H252.711V48.4799H259.711V53.9999H252.811V63.9199C252.753 64.4466 252.815 64.9793 252.992 65.4788C253.168 65.9783 253.455 66.4316 253.83 66.8053C254.206 67.1789 254.661 67.4632 255.161 67.6371C255.661 67.811 256.195 67.8701 256.721 67.8099H256.701Z" fill="#161428"></path><path d="M277.691 40.93C279.757 40.8848 281.8 41.374 283.621 42.35C285.366 43.2952 286.816 44.7036 287.811 46.42C288.837 48.1827 289.366 50.1906 289.341 52.23C289.383 53.7417 289.107 55.2454 288.532 56.644C287.957 58.0426 287.094 59.3051 286.001 60.35C284.902 61.4158 283.6 62.2507 282.173 62.8054C280.746 63.3602 279.222 63.6235 277.691 63.58H272.121V73.93H264.991V40.93H277.691ZM277.371 57.01C278.001 57.0353 278.628 56.9302 279.215 56.7013C279.802 56.4724 280.335 56.1247 280.781 55.68C281.622 54.747 282.087 53.5357 282.087 52.28C282.087 51.0242 281.622 49.813 280.781 48.88C280.333 48.4355 279.798 48.088 279.21 47.8592C278.621 47.6304 277.992 47.5251 277.361 47.55H272.121V57.01H277.371Z" fill="#161428"></path><path d="M314.311 48.43H319.471V73.88H314.061L313.461 71.61C311.185 73.6026 308.246 74.6726 305.221 74.61C302.828 74.6425 300.468 74.0423 298.381 72.87C296.382 71.7313 294.735 70.0636 293.621 68.05C292.457 65.942 291.861 63.5678 291.891 61.16C291.868 58.7785 292.465 56.4319 293.621 54.35C294.737 52.334 296.392 50.6685 298.401 49.54C300.488 48.3678 302.848 47.7675 305.241 47.8C308.323 47.7233 311.318 48.8207 313.621 50.87L314.311 48.43ZM300.811 66.14C302.148 67.4141 303.924 68.1248 305.771 68.1248C307.618 68.1248 309.394 67.4141 310.731 66.14C311.999 64.784 312.705 62.9967 312.705 61.14C312.705 59.2834 311.999 57.4961 310.731 56.14C309.394 54.866 307.618 54.1553 305.771 54.1553C303.924 54.1553 302.148 54.866 300.811 56.14C299.536 57.4927 298.826 59.2813 298.826 61.14C298.826 62.9988 299.536 64.7874 300.811 66.14V66.14Z" fill="#161428"></path><path d="M339.081 48.35H341.331V54.84H338.331C336.401 54.84 335.011 55.29 334.181 56.21C333.227 57.5066 332.779 59.1066 332.921 60.71V73.93H326.041V48.48H330.441L331.661 51.61C332.553 50.5199 333.69 49.6563 334.98 49.0897C336.269 48.5232 337.675 48.2697 339.081 48.35Z" fill="#161428"></path><path d="M357.861 67.8099H360.991V73.9299H356.111C354.894 74.0289 353.67 73.8613 352.524 73.4389C351.379 73.0165 350.339 72.3494 349.477 71.4842C348.616 70.6189 347.953 69.5762 347.536 68.4287C347.119 67.2812 346.957 66.0565 347.061 64.8399V53.9999H342.461V52.5299L352.521 41.8199H353.831V48.4799H360.831V53.9999H353.921V63.9199C353.865 64.4471 353.928 64.98 354.106 65.4794C354.284 65.9788 354.571 66.432 354.948 66.8053C355.324 67.1787 355.779 67.4628 356.28 67.6367C356.781 67.8106 357.314 67.8698 357.841 67.8099H357.861Z" fill="#161428"></path><path d="M380.161 47.88C381.45 47.822 382.736 48.0511 383.926 48.5509C385.116 49.0507 386.18 49.8087 387.041 50.77C388.839 52.9363 389.76 55.6981 389.621 58.51V73.93H382.741V59.61C382.741 55.81 381.261 53.91 378.301 53.91C377.515 53.8726 376.731 54.0132 376.007 54.3214C375.283 54.6297 374.639 55.0975 374.121 55.69C373.036 57.0733 372.492 58.8047 372.591 60.56V73.93H365.711V48.48H370.431L371.761 51.63C372.765 50.452 374.018 49.5125 375.431 48.88C376.917 48.2097 378.531 47.8686 380.161 47.88V47.88Z" fill="#161428"></path><path d="M420.621 61.1099C420.622 61.7788 420.579 62.4469 420.491 63.1099H401.171C401.36 64.6503 402.099 66.0708 403.251 67.1099C404.423 68.063 405.902 68.5571 407.411 68.4999C408.524 68.5164 409.622 68.2479 410.601 67.7199C411.52 67.2207 412.279 66.4719 412.791 65.5599H420.021C419.38 67.4272 418.335 69.1301 416.96 70.547C415.585 71.9639 413.915 73.0601 412.068 73.7573C410.221 74.4545 408.242 74.7355 406.274 74.5804C404.306 74.4253 402.396 73.8379 400.681 72.8599C398.681 71.7133 397.034 70.039 395.921 68.0199C394.765 65.9276 394.172 63.5705 394.201 61.1799C394.177 58.7945 394.766 56.4428 395.911 54.3499C397.01 52.3372 398.639 50.6634 400.621 49.5099C402.679 48.3363 405.012 47.7322 407.381 47.7599C409.791 47.7218 412.164 48.3481 414.241 49.5699C416.214 50.7227 417.83 52.3975 418.911 54.4099C420.036 56.4639 420.624 58.7683 420.621 61.1099V61.1099ZM407.461 53.6299C406.063 53.5891 404.694 54.0383 403.591 54.8999C402.49 55.8034 401.722 57.0496 401.411 58.4399H413.741C413.364 57.0324 412.548 55.7818 411.411 54.8699C410.256 54.0176 408.846 53.5806 407.411 53.6299H407.461Z" fill="#161428"></path><path d="M438.481 48.35H440.731V54.84H437.731C435.791 54.84 434.411 55.29 433.571 56.21C432.731 57.13 432.321 58.62 432.321 60.71V73.93H425.441V48.48H429.831L431.051 51.61C431.944 50.5186 433.083 49.6541 434.374 49.0875C435.666 48.5208 437.073 48.2681 438.481 48.35Z" fill="#161428"></path><path d="M453.491 74.64C450.698 74.7741 447.951 73.8892 445.761 72.15C444.805 71.3427 444.043 70.3299 443.532 69.1872C443.021 68.0445 442.775 66.8012 442.811 65.55H449.501C449.482 66.0334 449.581 66.514 449.788 66.9511C449.995 67.3881 450.305 67.7686 450.691 68.06C451.591 68.6811 452.669 68.9902 453.761 68.94C454.664 68.9656 455.556 68.7332 456.331 68.27C456.664 68.0758 456.938 67.7943 457.123 67.456C457.308 67.1177 457.397 66.7353 457.381 66.35C457.37 65.9869 457.244 65.6367 457.021 65.35C456.721 65 456.335 64.7346 455.901 64.58C455.42 64.3765 454.921 64.2159 454.411 64.1C453.921 63.98 453.271 63.85 452.471 63.72L450.621 63.35C450.131 63.25 449.541 63.1 448.841 62.9C448.236 62.7375 447.647 62.5199 447.081 62.25C446.548 61.9638 446.043 61.629 445.571 61.25C445.077 60.8876 444.65 60.4407 444.311 59.93C443.964 59.3848 443.698 58.7919 443.521 58.17C443.311 57.4285 443.206 56.6609 443.211 55.89C443.186 54.7563 443.43 53.6328 443.922 52.611C444.414 51.5892 445.14 50.698 446.041 50.01C448.178 48.4189 450.8 47.6167 453.461 47.74C456.122 47.6082 458.742 48.4388 460.841 50.08C461.748 50.8228 462.472 51.7632 462.959 52.8292C463.446 53.8952 463.683 55.0585 463.651 56.23H457.121C457.143 55.8028 457.064 55.3764 456.89 54.9854C456.717 54.5945 456.453 54.25 456.121 53.98C455.29 53.4251 454.299 53.1581 453.301 53.22C452.417 53.169 451.541 53.404 450.801 53.89C450.516 54.0873 450.285 54.3524 450.128 54.6613C449.97 54.9703 449.893 55.3135 449.901 55.66C449.893 55.9172 449.941 56.173 450.041 56.41C450.159 56.6476 450.343 56.8457 450.571 56.98C450.831 57.14 451.061 57.28 451.291 57.4C451.612 57.548 451.947 57.662 452.291 57.74C452.741 57.86 453.111 57.94 453.391 58L454.701 58.24C456.526 58.5065 458.316 58.9692 460.041 59.62C461.317 60.1235 462.402 61.0172 463.14 62.1738C463.878 63.3303 464.232 64.6904 464.151 66.06C464.203 67.2646 463.966 68.4639 463.459 69.5581C462.953 70.6523 462.193 71.6096 461.241 72.35C459 73.9864 456.262 74.7957 453.491 74.64V74.64Z" fill="#161428"></path><path d="M60.101 52.42C59.871 64.48 49.621 73.98 37.621 73.98H36.121C35.7361 73.9805 35.3552 74.0587 35.0013 74.2099C34.6473 74.3611 34.3275 74.5822 34.061 74.86L26.271 83.12L20.881 88.84C20.5323 89.2078 20.0916 89.4757 19.6045 89.6157C19.1174 89.7557 18.6017 89.7628 18.1109 89.6363C17.6201 89.5098 17.1721 89.2542 16.8134 88.8962C16.4547 88.5381 16.1984 88.0906 16.071 87.6L14.071 79.99L12.521 73.99L9.681 62.99L7.761 55.54C7.65443 55.121 7.64494 54.6831 7.73325 54.2599C7.82157 53.8367 8.00535 53.4392 8.2706 53.0977C8.53584 52.7563 8.87554 52.4799 9.2638 52.2897C9.65206 52.0994 10.0786 52.0004 10.511 52H16.011C16.6406 52 17.2525 52.2092 17.7502 52.5947C18.248 52.9803 18.6036 53.5203 18.761 54.13L21.041 62.99L23.041 70.54L29.321 63.88C29.5855 63.599 29.9048 63.3751 30.259 63.2221C30.6133 63.069 30.9951 62.9901 31.381 62.99H38.161C39.6709 62.9935 41.1653 62.6862 42.5513 62.0871C43.9372 61.488 45.1849 60.6099 46.2168 59.5077C47.2487 58.4055 48.0426 57.1026 48.5492 55.6802C49.0557 54.2578 49.2639 52.7464 49.161 51.24C48.9154 48.405 47.6008 45.7696 45.4838 43.868C43.3669 41.9665 40.606 40.9411 37.761 41H6.211C5.58091 41.0018 4.96826 40.7932 4.47012 40.4074C3.97198 40.0215 3.61685 39.4805 3.461 38.87L2.091 33.54C1.98258 33.1216 1.9714 32.684 2.05834 32.2607C2.14528 31.8374 2.32802 31.4396 2.59254 31.0978C2.85706 30.756 3.19635 30.4794 3.58437 30.2891C3.97238 30.0988 4.39883 29.9999 4.831 30H38.111C41.0334 30.0076 43.9253 30.5957 46.6185 31.7303C49.3117 32.865 51.7526 34.5234 53.7995 36.6093C55.8464 38.6953 57.4584 41.1671 58.5418 43.8813C59.6253 46.5955 60.1587 49.4979 60.111 52.42H60.101Z" fill="#6E55FF"></path></g><path d="M9.31006 20.7265C10.3657 17.233 11.4228 13.7381 12.4785 10.2447C12.6971 9.51981 12.9301 8.76905 13.4407 8.20526C14.0073 7.58107 14.8386 7.26898 15.6354 6.98133C21.7996 4.76214 28.0243 2.70548 34.2993 0.815643C35.9748 0.310825 37.7208 -0.18824 39.4539 0.0706408C41.0518 0.307949 42.4771 1.16657 43.8405 2.02519C48.6557 5.05554 53.3256 8.31026 57.8302 11.7735C58.5176 12.3013 59.2209 12.8579 59.6279 13.6173C60.0019 14.3105 60.0954 15.1131 60.1802 15.8926C61.4128 27.2848 62.0528 38.7389 62.0988 50.1944C61.8155 50.8977 60.7498 50.971 60.1371 50.5136C59.5244 50.0577 60.5916 46.7182 60.3571 45.9976C57.449 37.0691 53.7341 30.8588 50.301 21.7836" fill="#ED2F2F"></path><path d="M55.2045 20.7363C57.4582 26.3785 56.3148 24.5605 54.7816 30.43L51.8764 33.1123C52.0878 32.4133 51.3414 35.0668 51.4766 33.8544L7.04395 20.5666C8.38006 19.4347 12.4661 18.2755 13.3031 18.2582C18.2895 18.1604 20.6525 18.3014 25.5482 19.2391C24.9988 19.7252 24.7514 19.9582 24.202 20.4443C32.6775 20.0071 40.3807 22.0868 47.7214 26.2994C49.837 27.5132 50.756 28.4207 51.7901 29.0737C51.99 22.8318 51.6046 14.9028 50.6827 11.0527C50.6582 10.9506 50.8035 10.906 50.8466 11.0024L53.8497 17.7088" fill="#DD281F"></path><path d="M10.3276 18.5603C13.1063 17.5363 19.4719 16.147 22.1484 15.8076C31.1259 14.6728 36.2416 15.5933 44.7948 16.938C43.6471 17.3795 43.1265 17.5938 41.9773 18.0354C45.639 18.0972 50.8368 16.5856 52.357 15.9888C54.7977 15.0309 50.7347 22.4191 53.3853 24.7131" fill="#DD281F"></path><path d="M62.1 50.1944C61.8167 50.8977 60.7509 50.971 60.1382 50.5137C59.5256 50.0577 60.5927 46.7182 60.3583 45.9976C60.3267 45.9013 60.295 45.8107 60.2634 45.7143L60.2749 45.6697L61.2989 28.4742C61.8023 35.7028 62.0712 42.9486 62.1 50.1944Z" fill="#DD281F"></path><path d="M55.5368 31.6831C51.1861 34.456 54.6566 34.1324 55.0363 34.3654C52.9221 36.8995 44.0165 33.5312 41.7729 34.9967L43.6153 36.0308C39.7234 37.1411 34.7745 37.4921 28.4017 37.0951C24.0352 36.5486 22.1885 35.6123 19.6386 35.2585C19.9852 35.6655 20.3792 36.0323 20.7949 36.3717C15.5051 35.7101 10.5878 34.6674 7.31869 33.3989C7.30431 33.816 7.68544 34.3611 8.2823 34.7523C8.42469 34.8457 4.86363 34.571 3.1018 32.5403C2.60418 31.9678 1.66645 30.5454 1.86349 28.9087C1.5744 29.1072 1.20909 29.5113 1.11849 30.8058C-1.31644 25.0715 0.538881 21.1854 3.66559 19.241C4.27828 18.8598 5.53385 18.2975 6.21557 18.053C8.62604 17.1843 10.4627 16.9671 13.2485 16.806C12.5654 17.2116 11.8132 17.6028 11.4133 18.007C13.9274 17.5352 23.1306 16.6176 31.7355 17.4389C35.8431 17.8315 45.1139 20.1053 49.151 19.2625C48.4031 19.9356 48.091 19.9054 47.3432 20.5771C50.8395 20.5929 54.5803 21.4544 56.4874 24.3495C58.6635 27.6546 57.1591 30.5224 55.5368 31.6831Z" fill="#EDEDED"></path><path d="M55.536 31.6831C51.1854 34.456 54.6558 34.1324 55.0355 34.3654C52.9213 36.8996 44.0158 33.5312 41.7722 34.9968L43.6145 36.0309C39.7227 37.1412 34.7737 37.4921 28.4009 37.0952C24.0345 36.5486 22.1878 35.6124 19.6378 35.2585C19.9844 35.6656 20.3785 36.0323 20.7941 36.3717C15.5043 35.7102 10.587 34.6674 7.31794 33.3989C7.30356 33.816 7.68469 34.3611 8.28155 34.7523C8.42394 34.8458 4.86288 34.5711 3.10105 32.5403C2.60342 31.9679 1.6657 30.5455 1.86273 28.9088C2.29852 30.7914 3.5958 32.1966 5.75314 33.1257C5.44824 32.7503 5.2512 32.29 5.18792 31.8126C9.24373 33.3788 13.5455 34.3179 17.8904 34.5869C17.6962 34.2935 17.5006 34.0001 17.305 33.7067C20.2951 34.4546 23.3039 35.2053 26.3802 35.4139C29.4566 35.621 34.1165 35.9144 36.8606 34.5308C36.2278 34.1986 34.1136 33.2076 33.4808 32.8754C37.2489 32.7647 41.0156 32.6525 44.7838 32.5417C45.5044 32.5202 51.8498 32.4626 53.649 29.1878C56.2753 24.4071 50.9322 21.2545 48.4585 20.6145C51.6096 20.8015 54.7809 21.7608 56.4867 24.3496C58.6627 27.6546 57.1583 30.5225 55.536 31.6831Z" fill="#DDDDDD"></path><path d="M60.6607 44.798C61.6947 44.5363 64.3684 45.1216 65.2457 45.7214C66.2884 46.4333 66.9098 47.4084 67.4074 48.3418C66.9874 48.3159 66.5675 48.2915 66.1475 48.2656C67.5037 49.409 67.9453 51.4513 67.8446 53.2088C67.7439 54.9663 67.4951 55.7947 65.8325 57.5767C64.1325 58.9905 63.6306 59.2076 61.8371 59.573C60.0422 59.9397 57.9007 59.5816 56.6724 58.2368C57.0622 58.139 57.452 58.0412 57.8432 57.9434C54.5295 56.5584 52.5116 52.6723 53.307 49.2091C53.9355 50.4057 54.0189 50.8242 55.286 51.3262C54.7467 50.7465 55.0357 48.1218 56.7328 46.6318C57.6404 45.835 58.8154 45.1389 59.9991 44.8699" fill="#EDEDED"></path><path d="M66.0378 57.7467C64.4557 59.1288 63.4936 59.4553 61.6986 59.7444C59.8908 60.0349 57.9003 59.5819 56.672 58.2371C57.0618 58.1393 57.4516 58.0415 57.8428 57.9437C54.5722 56.576 52.5688 52.7733 53.2821 49.3445C53.5957 51.9866 54.2026 52.7891 54.8613 53.6017C55.5258 54.4201 56.1025 54.9206 57.0244 55.4426C57.9463 55.9647 59.1242 56.1258 60.0778 55.6627C60.095 56.2035 59.9296 56.7485 59.6118 57.1886C60.9163 57.9912 64.2688 57.3627 65.9242 55.5534C66.6864 54.7206 66.9741 53.6592 67.0187 52.6064C66.6116 52.7618 66.1917 52.884 65.7631 52.9631C66.4419 52.0427 66.7497 50.8734 66.6519 49.7401C66.4923 49.1561 66.324 48.6643 66.1471 48.2659C67.5033 49.4093 68.0154 51.2631 67.9995 53.0235C67.9866 54.5696 67.9621 55.5793 66.0378 57.7467Z" fill="#DDDDDD"></path><defs><clipPath id="clip0_432_3150"><rect width="462.162" height="59.726" fill="white" transform="translate(2 30)"></rect></clipPath></defs></svg> 