<?xml version="1.0" encoding="UTF-8"?> <svg xmlns="http://www.w3.org/2000/svg" width="75" height="60" viewBox="0 0 75 60" fill="none"><g clip-path="url(#clip0_1029_615)"><path opacity="0.4" d="M56.1446 37.5H47.4903C52.875 41.918 56.25 48.5273 56.25 55.9336C56.25 57.4336 55.8047 58.8164 55.0782 60H71.2501C73.3243 60 75.0001 58.3125 75.0001 56.1445C75.0001 45.8906 66.6094 37.5 56.1446 37.5ZM50.625 30C57.879 30 63.75 24.1289 63.75 16.875C63.75 9.62109 57.879 3.75 50.625 3.75C47.6825 3.75 44.9954 4.75254 42.8063 6.38789C44.1563 8.98008 45 11.8828 45 15C45 19.1625 43.602 22.9852 41.2981 26.0988C43.6758 28.5 46.9688 30 50.625 30Z"></path><path d="M15.4723 36C6.60563 38.1378 0 46.2283 0 55.9016C0 58.1693 1.80143 60 4.02304 60H21.3571L15.4723 36ZM36.5277 36L30.6429 60H47.9723C50.2009 60 52 58.1693 52 55.9016C52 46.2283 45.3955 38.1378 36.5277 36Z"></path><path opacity="0.4" d="M20.35 34L24.1 40.5L20.3511 56.1813L21.2875 60H30.6625L31.5986 56.2799L27.85 40.5L31.6 34H20.35Z"></path><path d="M40.8609 14.8585C40.8609 23.0643 34.2094 29.717 26.0024 29.717C17.7954 29.717 11.1439 23.0643 11.1439 14.8585C11.1439 6.65266 17.7954 0 26.0024 0C34.2094 0 40.8609 6.65266 40.8609 14.8585Z"></path></g><defs><clipPath id="clip0_1029_615"><rect width="75" height="60" fill="white"></rect></clipPath></defs></svg> 